<svg width="20" height="20" viewBox="0 0 20 20" fill="none" xmlns="http://www.w3.org/2000/svg" xmlns:xlink="http://www.w3.org/1999/xlink">
<path d="M20,10C20,10.318 19.874,10.623 19.649,10.849C19.423,11.074 19.118,11.2 18.8,11.2L11.2,11.2L11.2,18.8C11.2,19.118 11.074,19.423 10.849,19.649C10.623,19.874 10.318,20 10,20C9.682,20 9.377,19.874 9.151,19.649C8.926,19.423 8.8,19.118 8.8,18.8L8.8,11.2L1.2,11.2C0.882,11.2 0.577,11.074 0.351,10.849C0.126,10.623 0,10.318 0,10C0,9.682 0.126,9.377 0.351,9.151C0.577,8.926 0.882,8.8 1.2,8.8L8.8,8.8L8.8,1.2C8.8,0.882 8.926,0.577 9.151,0.351C9.377,0.126 9.682,0 10,0C10.318,0 10.623,0.126 10.849,0.351C11.074,0.577 11.2,0.882 11.2,1.2L11.2,8.8L18.8,8.8C19.118,8.8 19.423,8.926 19.649,9.151C19.874,9.377 20,9.682 20,10Z" fill="#000000"/>
</svg>
